<?xml version="1.0" encoding="UTF-8"?>
<svg xmlns="http://www.w3.org/2000/svg" xmlns:xlink="http://www.w3.org/1999/xlink" width="24pt" height="24pt" viewBox="0 0 24 24" version="1.1">
<g id="surface4954">
<path style=" stroke:none;fill-rule:nonzero;fill:rgb(17.647059%,63.137255%,33.72549%);fill-opacity:1;" d="M 12 2 C 11.171875 2 10.5 2.671875 10.5 3.5 L 10.5 4.195312 C 7.914062 4.863281 6 7.203125 6 10 L 6 16 L 4.464844 17.15625 L 4.460938 17.15625 C 4.175781 17.339844 4 17.65625 4 18 C 4 18.550781 4.449219 19 5 19 L 19 19 C 19.550781 19 20 18.550781 20 18 C 20 17.65625 19.824219 17.339844 19.535156 17.15625 L 18 16 L 18 10 C 18 7.203125 16.085938 4.863281 13.5 4.195312 L 13.5 3.5 C 13.5 2.671875 12.828125 2 12 2 Z M 5.835938 2.53125 C 5.5625 2.511719 5.28125 2.601562 5.066406 2.804688 C 3.429688 4.378906 2.328125 6.503906 2.0625 8.882812 C 1.996094 9.476562 2.464844 10 3.0625 10 C 3.570312 10 3.992188 9.621094 4.046875 9.117188 C 4.261719 7.203125 5.152344 5.496094 6.46875 4.230469 C 6.832031 3.882812 6.863281 3.320312 6.554688 2.921875 C 6.375 2.6875 6.109375 2.554688 5.835938 2.53125 Z M 18.164062 2.53125 C 17.890625 2.554688 17.625 2.6875 17.441406 2.921875 C 17.136719 3.320312 17.167969 3.882812 17.53125 4.230469 C 18.851562 5.496094 19.742188 7.207031 19.953125 9.125 C 20.007812 9.625 20.433594 10 20.9375 10 C 21.539062 10 22.003906 9.472656 21.9375 8.875 C 21.671875 6.5 20.566406 4.378906 18.933594 2.808594 C 18.71875 2.601562 18.4375 2.511719 18.164062 2.53125 Z M 10 20 C 10 21.101562 10.898438 22 12 22 C 13.101562 22 14 21.101562 14 20 Z M 10 20 "/>
</g>
</svg>
