<?xml version="1.0" encoding="UTF-8"?>
<svg xmlns="http://www.w3.org/2000/svg" xmlns:xlink="http://www.w3.org/1999/xlink" width="24pt" height="24pt" viewBox="0 0 24 24" version="1.1">
<g id="surface3087">
<path style=" stroke:none;fill-rule:nonzero;fill:rgb(50.980392%,51.764706%,56.470588%);fill-opacity:1;" d="M 4 1 C 3.449219 1 3 1.449219 3 2 L 3 8.246094 C 3 8.523438 3.335938 8.664062 3.53125 8.46875 L 5 7 L 13 7 C 13.550781 7 14 6.550781 14 6 L 14 2 C 14 1.449219 13.550781 1 13 1 Z M 16 2 L 16 6 C 16 6.769531 15.699219 7.46875 15.21875 8 L 19 8 L 20.46875 9.46875 C 20.664062 9.664062 21 9.527344 21 9.25 L 21 3 C 21 2.449219 20.550781 2 20 2 Z M 12 10 C 10.34375 10 9 11.34375 9 13 C 9 14.65625 10.34375 16 12 16 C 13.65625 16 15 14.65625 15 13 C 15 11.34375 13.65625 10 12 10 Z M 6 12 C 4.894531 12 4 12.894531 4 14 C 4 15.105469 4.894531 16 6 16 C 7.105469 16 8 15.105469 8 14 C 8 12.894531 7.105469 12 6 12 Z M 18 12 C 16.894531 12 16 12.894531 16 14 C 16 15.105469 16.894531 16 18 16 C 19.105469 16 20 15.105469 20 14 C 20 12.894531 19.105469 12 18 12 Z M 12.003906 16.96875 C 8.585938 16.96875 6.007812 18.480469 6.007812 20.484375 L 6.007812 22 C 6.007812 22.550781 6.457031 23 7.007812 23 L 17 23 C 17.550781 23 18 22.550781 18 22 L 18 20.484375 C 18 18.480469 15.421875 16.96875 12.003906 16.96875 Z M 19.074219 17.78125 C 19.667969 18.566406 20 19.480469 20 20.484375 L 20 23 L 22.125 23 C 22.675781 23 23.125 22.550781 23.125 22 L 23.125 20.769531 C 23.125 19.242188 21.441406 18.046875 19.074219 17.78125 Z M 4.921875 17.800781 C 2.621094 18.097656 1 19.273438 1 20.769531 L 1 22 C 1 22.550781 1.449219 23 2 23 L 4.007812 23 L 4.007812 20.484375 C 4.007812 19.492188 4.332031 18.582031 4.921875 17.800781 Z M 4.921875 17.800781 "/>
</g>
</svg>
