<?xml version="1.0" encoding="UTF-8"?>
<svg xmlns="http://www.w3.org/2000/svg" xmlns:xlink="http://www.w3.org/1999/xlink" width="24pt" height="24pt" viewBox="0 0 24 24" version="1.1">
<g id="surface1670">
<path style=" stroke:none;fill-rule:nonzero;fill:rgb(0%,0%,0%);fill-opacity:1;" d="M 12 2 C 6.484375 2 2 6.484375 2 12 C 2 17.515625 6.484375 22 12 22 C 17.515625 22 22 17.515625 22 12 C 22 6.484375 17.515625 2 12 2 Z M 12 4 C 12.550781 4 13 4.449219 13 5 C 13 5.550781 12.550781 6 12 6 C 11.449219 6 11 5.550781 11 5 C 11 4.449219 11.449219 4 12 4 Z M 5 13 C 4.449219 13 4 12.550781 4 12 C 4 11.449219 4.449219 11 5 11 C 5.550781 11 6 11.449219 6 12 C 6 12.550781 5.550781 13 5 13 Z M 6.132812 6.5 C 6.410156 6.023438 7.023438 5.859375 7.5 6.132812 C 7.976562 6.410156 8.140625 7.023438 7.867188 7.5 C 7.589844 7.976562 6.976562 8.140625 6.5 7.867188 C 6.023438 7.589844 5.859375 6.976562 6.132812 6.5 Z M 7.867188 17.5 C 7.589844 17.976562 6.980469 18.140625 6.5 17.867188 C 6.023438 17.589844 5.859375 16.976562 6.132812 16.5 C 6.410156 16.023438 7.023438 15.859375 7.5 16.132812 C 7.980469 16.410156 8.140625 17.019531 7.867188 17.5 Z M 12 13.5 C 11.171875 13.5 10.5 12.828125 10.5 12 C 10.5 11.171875 11.171875 10.5 12 10.5 C 12.027344 10.5 12.050781 10.507812 12.078125 10.507812 L 16.292969 6.292969 C 16.683594 5.902344 17.316406 5.902344 17.707031 6.292969 C 18.097656 6.683594 18.097656 7.316406 17.707031 7.707031 L 13.492188 11.921875 C 13.492188 11.949219 13.5 11.972656 13.5 12 C 13.5 12.828125 12.828125 13.5 12 13.5 Z M 17.867188 17.5 C 17.589844 17.976562 16.976562 18.140625 16.5 17.867188 C 16.023438 17.589844 15.859375 16.976562 16.132812 16.5 C 16.410156 16.023438 17.023438 15.859375 17.5 16.132812 C 17.976562 16.410156 18.140625 17.019531 17.867188 17.5 Z M 19 13 C 18.449219 13 18 12.550781 18 12 C 18 11.449219 18.449219 11 19 11 C 19.550781 11 20 11.449219 20 12 C 20 12.550781 19.550781 13 19 13 Z M 19 13 "/>
</g>
</svg>
