<?xml version="1.0" encoding="utf-8"?>
<!-- Generator: Adobe Illustrator 26.2.1, SVG Export Plug-In . SVG Version: 6.00 Build 0)  -->
<svg version="1.1" id="Layer_1" xmlns="http://www.w3.org/2000/svg" xmlns:xlink="http://www.w3.org/1999/xlink" x="0px" y="0px"
	 viewBox="0 0 24 24" style="enable-background:new 0 0 24 24;" xml:space="preserve">
<style type="text/css">
	.st0{fill:#828490;}
</style>
<g id="surface1670">
	<path class="st0" d="M12,2C6.5,2,2,6.5,2,12s4.5,10,10,10s10-4.5,10-10S17.5,2,12,2z M12,4c0.6,0,1,0.4,1,1s-0.4,1-1,1s-1-0.4-1-1
		S11.4,4,12,4z M5,13c-0.6,0-1-0.4-1-1s0.4-1,1-1s1,0.4,1,1S5.6,13,5,13z M6.1,6.5C6.4,6,7,5.9,7.5,6.1C8,6.4,8.1,7,7.9,7.5
		C7.6,8,7,8.1,6.5,7.9C6,7.6,5.9,7,6.1,6.5z M7.9,17.5C7.6,18,7,18.1,6.5,17.9C6,17.6,5.9,17,6.1,16.5C6.4,16,7,15.9,7.5,16.1
		C8,16.4,8.1,17,7.9,17.5z M12,13.5c-0.8,0-1.5-0.7-1.5-1.5s0.7-1.5,1.5-1.5c0,0,0.1,0,0.1,0l4.2-4.2c0.4-0.4,1-0.4,1.4,0
		s0.4,1,0,1.4l-4.2,4.2c0,0,0,0.1,0,0.1C13.5,12.8,12.8,13.5,12,13.5z M17.9,17.5c-0.3,0.5-0.9,0.6-1.4,0.4
		c-0.5-0.3-0.6-0.9-0.4-1.4c0.3-0.5,0.9-0.6,1.4-0.4C18,16.4,18.1,17,17.9,17.5z M19,13c-0.6,0-1-0.4-1-1s0.4-1,1-1s1,0.4,1,1
		S19.6,13,19,13z"/>
</g>
</svg>
