<?xml version="1.0" encoding="UTF-8"?>
<svg xmlns="http://www.w3.org/2000/svg" xmlns:xlink="http://www.w3.org/1999/xlink" width="24pt" height="24pt" viewBox="0 0 24 24" version="1.1">
<g id="surface5677">
<path style=" stroke:none;fill-rule:nonzero;fill:rgb(50.980392%,51.764706%,56.470588%);fill-opacity:1;" d="M 12 4 C 5.140625 4 1.886719 9.878906 1.09375 11.558594 C 0.964844 11.835938 0.964844 12.160156 1.09375 12.441406 C 1.886719 14.121094 5.140625 20 12 20 C 18.835938 20 22.09375 14.164062 22.894531 12.460938 C 23.035156 12.167969 23.035156 11.832031 22.894531 11.539062 C 22.09375 9.835938 18.835938 4 12 4 Z M 12 7 C 14.761719 7 17 9.238281 17 12 C 17 14.761719 14.761719 17 12 17 C 9.238281 17 7 14.761719 7 12 C 7 9.238281 9.238281 7 12 7 Z M 12 9 C 10.34375 9 9 10.34375 9 12 C 9 13.65625 10.34375 15 12 15 C 13.65625 15 15 13.65625 15 12 C 15 10.34375 13.65625 9 12 9 Z M 12 9 "/>
</g>
</svg>
