<?xml version="1.0" encoding="UTF-8"?>
<svg xmlns="http://www.w3.org/2000/svg" xmlns:xlink="http://www.w3.org/1999/xlink" width="24pt" height="24pt" viewBox="0 0 24 24" version="1.1">
<g id="surface1321">
<path style=" stroke:none;fill-rule:nonzero;fill:rgb(0%,0%,0%);fill-opacity:1;" d="M 8.03125 3 C 7.382812 3 6.777344 3.3125 6.402344 3.835938 L 2.5625 9.210938 C 2.328125 9.539062 2.566406 10 2.972656 10 L 3 10 L 3 20 C 3 20.550781 3.449219 21 4 21 L 20 21 C 20.550781 21 21 20.550781 21 20 L 21 10 L 21.027344 10 C 21.433594 10 21.671875 9.539062 21.4375 9.210938 L 17.597656 3.835938 C 17.222656 3.3125 16.617188 3 15.96875 3 Z M 8.5 5.101562 L 11.402344 9.164062 C 11.777344 9.6875 12.382812 10 13.03125 10 L 19 10 L 19 19 L 11 19 L 11 14 C 11 13.449219 10.550781 13 10 13 L 8 13 C 7.449219 13 7 13.449219 7 14 L 7 19 L 5 19 L 5 10 Z M 14 13 C 13.449219 13 13 13.449219 13 14 L 13 16 C 13 16.550781 13.449219 17 14 17 L 16 17 C 16.550781 17 17 16.550781 17 16 L 17 14 C 17 13.449219 16.550781 13 16 13 Z M 14 13 "/>
</g>
</svg>
