<?xml version="1.0" encoding="utf-8"?>
<!-- Generator: Adobe Illustrator 26.2.1, SVG Export Plug-In . SVG Version: 6.00 Build 0)  -->
<svg version="1.1" id="Layer_1" xmlns="http://www.w3.org/2000/svg" xmlns:xlink="http://www.w3.org/1999/xlink" x="0px" y="0px"
	 viewBox="0 0 24 24" style="enable-background:new 0 0 24 24;" xml:space="preserve">
<style type="text/css">
	.st0{fill:#2D6DD4;}
</style>
<g id="surface1321">
	<path class="st0" d="M8,3C7.4,3,6.8,3.3,6.4,3.8L2.6,9.2C2.3,9.5,2.6,10,3,10h0v10c0,0.6,0.4,1,1,1h16c0.6,0,1-0.4,1-1V10h0
		c0.4,0,0.6-0.5,0.4-0.8l-3.8-5.4C17.2,3.3,16.6,3,16,3H8z M8.5,5.1l2.9,4.1c0.4,0.5,1,0.8,1.6,0.8h6v9h-8v-5c0-0.6-0.4-1-1-1H8
		c-0.6,0-1,0.4-1,1v5H5v-9L8.5,5.1z M14,13c-0.6,0-1,0.4-1,1v2c0,0.6,0.4,1,1,1h2c0.6,0,1-0.4,1-1v-2c0-0.6-0.4-1-1-1H14z"/>
</g>
</svg>
