<?xml version="1.0" encoding="UTF-8"?>
<svg xmlns="http://www.w3.org/2000/svg" xmlns:xlink="http://www.w3.org/1999/xlink" width="24pt" height="24pt" viewBox="0 0 24 24" version="1.1">
<g id="surface2660">
<path style=" stroke:none;fill-rule:nonzero;fill:rgb(50.980392%,51.764706%,56.470588%);fill-opacity:1;" d="M 9 3 C 5.132812 3 2 5.6875 2 9 C 2 10.128906 2.367188 11.175781 3 12.078125 L 3 15.71875 C 3 16.246094 3.605469 16.546875 4.027344 16.230469 L 6.289062 14.53125 C 7.121094 14.832031 8.039062 15 9 15 C 12.867188 15 16 12.3125 16 9 C 16 5.6875 12.867188 3 9 3 Z M 17.976562 8.574219 C 17.984375 8.714844 18 8.855469 18 9 C 18 13.410156 13.964844 17 9 17 C 8.980469 17 8.960938 16.996094 8.941406 16.996094 C 10.152344 18.789062 12.410156 20 15 20 C 15.960938 20 16.875 19.832031 17.710938 19.53125 L 19.972656 21.230469 C 20.398438 21.546875 21 21.246094 21 20.71875 L 21 17.078125 C 21.632812 16.175781 22 15.128906 22 14 C 22 11.601562 20.351562 9.535156 17.976562 8.574219 Z M 17.976562 8.574219 "/>
</g>
</svg>
