<?xml version="1.0" encoding="UTF-8"?>
<svg xmlns="http://www.w3.org/2000/svg" xmlns:xlink="http://www.w3.org/1999/xlink" width="24pt" height="24pt" viewBox="0 0 24 24" version="1.1">
<g id="surface2351">
<path style=" stroke:none;fill-rule:nonzero;fill:rgb(50.980392%,51.764706%,56.470588%);fill-opacity:1;" d="M 20.84375 12.085938 L 18.949219 9.121094 C 18.492188 4.921875 14.785156 1.699219 10.398438 2.023438 C 5.738281 2.363281 2.414062 6.828125 3.097656 11.445312 C 3.617188 14.941406 6 14.949219 6 19.238281 L 6 20 C 6 21.105469 6.894531 22 8 22 L 13 22 C 14.105469 22 15 21.105469 15 20 L 15 19 L 17 19 C 18.105469 19 19 18.105469 19 17 L 19 14.019531 L 20.425781 13.421875 C 20.945312 13.199219 21.144531 12.5625 20.84375 12.085938 Z M 20.84375 12.085938 "/>
</g>
</svg>
