<?xml version="1.0" encoding="UTF-8"?>
<svg xmlns="http://www.w3.org/2000/svg" xmlns:xlink="http://www.w3.org/1999/xlink" width="24pt" height="24pt" viewBox="0 0 24 24" version="1.1">
<g id="surface2236">
<path style=" stroke:none;fill-rule:nonzero;fill:rgb(17.647059%,42.745098%,83.137255%);fill-opacity:1;" d="M 11 0 L 11 2.277344 C 10.601562 2.507812 10.292969 2.867188 10.128906 3.300781 C 7.734375 4.089844 6 6.34375 6 9 L 6 9.5625 C 4.8125 10.257812 4 11.535156 4 13 C 4 14.464844 4.8125 15.742188 6 16.4375 L 6 22 L 8 22 L 8 21 C 8 19.898438 8.898438 19 10 19 L 14 19 C 15.101562 19 16 19.898438 16 21 L 16 22 L 18 22 L 18 16.4375 C 19.1875 15.742188 20 14.464844 20 13 C 20 11.535156 19.1875 10.257812 18 9.5625 L 18 9 C 18 6.34375 16.265625 4.089844 13.871094 3.300781 C 13.707031 2.867188 13.398438 2.507812 13 2.277344 L 13 0 Z M 8 11 L 16 11 C 17.117188 11 18 11.882812 18 13 C 18 14.117188 17.117188 15 16 15 L 8 15 C 6.882812 15 6 14.117188 6 13 C 6 11.882812 6.882812 11 8 11 Z M 9 12 C 8.449219 12 8 12.449219 8 13 C 8 13.550781 8.449219 14 9 14 C 9.550781 14 10 13.550781 10 13 C 10 12.449219 9.550781 12 9 12 Z M 15 12 C 14.449219 12 14 12.449219 14 13 C 14 13.550781 14.449219 14 15 14 C 15.550781 14 16 13.550781 16 13 C 16 12.449219 15.550781 12 15 12 Z M 15 12 "/>
</g>
</svg>
