<?xml version="1.0" encoding="utf-8"?>
<!-- Generator: Adobe Illustrator 26.2.1, SVG Export Plug-In . SVG Version: 6.00 Build 0)  -->
<svg version="1.1" id="Layer_1" xmlns="http://www.w3.org/2000/svg" xmlns:xlink="http://www.w3.org/1999/xlink" x="0px" y="0px"
	 viewBox="0 0 24 24" style="enable-background:new 0 0 24 24;" xml:space="preserve">
<style type="text/css">
	.st0{fill:#FFFFFF;}
</style>
<g id="surface2166">
	<path class="st0" d="M11,0v2.3c-0.4,0.2-0.7,0.6-0.9,1C7.7,4.1,6,6.3,6,9v0.6c-1.2,0.7-2,2-2,3.4s0.8,2.7,2,3.4V22h2v-1
		c0-1.1,0.9-2,2-2h4c1.1,0,2,0.9,2,2v1h2v-5.6c1.2-0.7,2-2,2-3.4s-0.8-2.7-2-3.4V9c0-2.7-1.7-4.9-4.1-5.7c-0.2-0.4-0.5-0.8-0.9-1V0
		H11z M8,11h8c1.1,0,2,0.9,2,2s-0.9,2-2,2H8c-1.1,0-2-0.9-2-2S6.9,11,8,11z M9,12c-0.6,0-1,0.4-1,1s0.4,1,1,1s1-0.4,1-1S9.6,12,9,12
		z M15,12c-0.6,0-1,0.4-1,1s0.4,1,1,1s1-0.4,1-1S15.6,12,15,12z"/>
</g>
</svg>
