<?xml version="1.0" encoding="UTF-8"?>
<svg xmlns="http://www.w3.org/2000/svg" xmlns:xlink="http://www.w3.org/1999/xlink" width="24pt" height="24pt" viewBox="0 0 24 24" version="1.1">
<g id="surface5859">
<path style=" stroke:none;fill-rule:nonzero;fill:rgb(50.980392%,51.764706%,56.470588%);fill-opacity:1;" d="M 19 3 C 17.347656 3 16 4.347656 16 6 C 16 6.460938 16.113281 6.894531 16.300781 7.285156 L 12.585938 11 L 7.816406 11 C 7.402344 9.839844 6.300781 9 5 9 C 3.347656 9 2 10.347656 2 12 C 2 13.652344 3.347656 15 5 15 C 6.300781 15 7.402344 14.160156 7.816406 13 L 12.585938 13 L 16.300781 16.714844 C 16.113281 17.105469 16 17.539062 16 18 C 16 19.652344 17.347656 21 19 21 C 20.652344 21 22 19.652344 22 18 C 22 16.347656 20.652344 15 19 15 C 18.539062 15 18.105469 15.113281 17.714844 15.300781 L 14.414062 12 L 17.714844 8.699219 C 18.105469 8.886719 18.539062 9 19 9 C 20.652344 9 22 7.652344 22 6 C 22 4.347656 20.652344 3 19 3 Z M 19 3 "/>
</g>
</svg>
