<?xml version="1.0" encoding="UTF-8"?>
<svg xmlns="http://www.w3.org/2000/svg" xmlns:xlink="http://www.w3.org/1999/xlink" width="24pt" height="24pt" viewBox="0 0 24 24" version="1.1">
<g id="surface3741">
<path style=" stroke:none;fill-rule:nonzero;fill:rgb(50.980392%,51.764706%,56.470588%);fill-opacity:1;" d="M 12 3 C 7.59375 3 4 6.59375 4 11 L 4 12 C 2.898438 12 2 12.898438 2 14 L 2 16 C 2 17.101562 2.898438 18 4 18 L 6 18 L 6 11 C 6 7.675781 8.675781 5 12 5 C 15.324219 5 18 7.675781 18 11 L 18 19 L 13.910156 19 C 13.699219 18.402344 13.136719 18 12.5 18 C 11.671875 18 11 18.671875 11 19.5 C 11 20.285156 11.609375 20.9375 12.390625 20.996094 C 12.429688 20.996094 12.464844 21 12.5 21 L 18 21 C 19.09375 21 20 20.09375 20 19 L 20 18 C 21.101562 18 22 17.101562 22 16 L 22 14 C 22 12.898438 21.101562 12 20 12 L 20 11 C 20 6.59375 16.40625 3 12 3 Z M 12 3 "/>
</g>
</svg>
