<?xml version="1.0" encoding="UTF-8"?>
<svg xmlns="http://www.w3.org/2000/svg" xmlns:xlink="http://www.w3.org/1999/xlink" width="24pt" height="24pt" viewBox="0 0 24 24" version="1.1">
<g id="surface2742">
<path style=" stroke:none;fill-rule:nonzero;fill:rgb(50.980392%,51.764706%,56.470588%);fill-opacity:1;" d="M 19 3 L 14.816406 3 C 14.402344 1.835938 13.304688 1 12 1 C 10.695312 1 9.597656 1.835938 9.183594 3 L 5 3 C 3.894531 3 3 3.894531 3 5 L 3 19 C 3 20.105469 3.894531 21 5 21 L 19 21 C 20.105469 21 21 20.105469 21 19 L 21 5 C 21 3.894531 20.105469 3 19 3 Z M 8.707031 11.292969 L 11 13.585938 L 15.292969 9.292969 C 15.683594 8.902344 16.316406 8.902344 16.707031 9.292969 C 17.097656 9.683594 17.097656 10.316406 16.707031 10.707031 L 11.707031 15.707031 C 11.316406 16.097656 10.683594 16.097656 10.292969 15.707031 L 7.292969 12.707031 C 6.902344 12.316406 6.902344 11.683594 7.292969 11.292969 C 7.683594 10.902344 8.316406 10.902344 8.707031 11.292969 Z M 12 3 C 12.550781 3 13 3.449219 13 4 C 13 4.550781 12.550781 5 12 5 C 11.449219 5 11 4.550781 11 4 C 11 3.449219 11.449219 3 12 3 Z M 12 3 "/>
</g>
</svg>
